<svg xmlns="http://www.w3.org/2000/svg" viewBox="0 0 900 712">
  <!--
    Expression grammar railroad diagram — transparent/dark-bg compatible
    Tracks: expr, unaryExpr, funcCall, qualifiedRef
  -->
  <defs>
    <marker id="arrow" viewBox="0 0 10 7" refX="10" refY="3.5" markerWidth="10" markerHeight="7" orient="auto-start-reverse">
      <path d="M 0 0 L 10 3.5 L 0 7 z" fill="#94A3B8"/>
    </marker>
    <filter id="shadow" x="-4%" y="-4%" width="108%" height="116%">
      <feDropShadow dx="0" dy="1" stdDeviation="2" flood-color="#000000" flood-opacity="0.3"/>
    </filter>
    <style>
      .title { font: 700 16px -apple-system, 'Segoe UI', Roboto, sans-serif; fill: #A5B4FC; }
      .label { font: bold 14px 'SF Mono', 'Cascadia Code', 'Fira Code', monospace; fill: #94A3B8; }
      .terminal rect { fill: #3B82F6; fill-opacity: 0.15; stroke: #3B82F6; stroke-width: 1.5; stroke-opacity: 0.5; filter: url(#shadow); }
      .terminal text { font: 13px -apple-system, 'Segoe UI', Roboto, sans-serif; fill: #93C5FD; font-weight: 600; }
      .nonterminal rect { fill: #F59E0B; fill-opacity: 0.15; stroke: #F59E0B; stroke-width: 1.5; stroke-opacity: 0.5; filter: url(#shadow); }
      .nonterminal text { font: 13px -apple-system, 'Segoe UI', Roboto, sans-serif; fill: #FCD34D; font-weight: 500; }
      .lit-terminal rect { fill: #6366F1; fill-opacity: 0.15; stroke: #6366F1; stroke-width: 1.5; stroke-opacity: 0.5; filter: url(#shadow); }
      .lit-terminal text { font: 13px -apple-system, 'Segoe UI', Roboto, sans-serif; fill: #A5B4FC; font-weight: 500; }
      .track { stroke: #94A3B8; stroke-width: 1.5; fill: none; }
      .track-dot { fill: #94A3B8; }
      .label-pill { fill: #94A3B8; fill-opacity: 0.08; stroke: #94A3B8; stroke-width: 0.5; stroke-opacity: 0.2; }
    </style>
  </defs>

  <!-- Title -->
  <text class="title" x="450" y="22" text-anchor="middle">Expression grammar</text>

  <!-- All content shifted down 8px for title -->
  <g transform="translate(0, 8)">

  <!-- ==================== expr ==================== -->
  <!-- unaryExpr with loopback via +/- below -->
  <g transform="translate(0, 20)">
    <!-- label background pill -->
    <rect class="label-pill" x="2" y="20" width="50" height="24" rx="6"/>
    <text class="label" x="10" y="36" text-anchor="start">expr</text>

    <!-- entry dot with outer ring -->
    <circle fill="#94A3B8" cx="100" cy="32" r="4"/>
    <circle fill="none" stroke="#94A3B8" stroke-width="1" stroke-opacity="0.3" cx="100" cy="32" r="7"/>
    <line class="track" x1="104" y1="32" x2="140" y2="32"/>

    <g class="nonterminal" transform="translate(140, 16)">
      <rect width="110" height="32" rx="4"/>
      <text x="55" y="16" text-anchor="middle" dominant-baseline="central">unaryExpr</text>
    </g>
    <line class="track" x1="250" y1="32" x2="310" y2="32"/>

    <!-- loopback below with +/- alternatives -->
    <path class="track" d="M 300,32 C 300,58 292,72 276,72"/>

    <!-- two alternatives for the operator: + and - -->
    <!-- + path (upper of the two) -->
    <g class="terminal" transform="translate(220, 56)">
      <rect width="30" height="32" rx="16"/>
      <text x="15" y="16" text-anchor="middle" dominant-baseline="central">+</text>
    </g>
    <path class="track" d="M 276,72 L 250,72"/>
    <path class="track" d="M 220,72 C 200,72 190,62 180,52"/>

    <!-- - path (lower) -->
    <path class="track" d="M 276,72 C 276,98 268,108 250,108"/>
    <g class="terminal" transform="translate(220, 92)">
      <rect width="30" height="32" rx="16"/>
      <text x="15" y="16" text-anchor="middle" dominant-baseline="central">-</text>
    </g>
    <path class="track" d="M 220,108 C 200,108 186,90 180,52"/>

    <!-- arrow pointing up at rejoin -->
    <path class="track" d="M 180,52 C 175,42 170,38 140,42"/>
    <path d="M 135,46 L 140,36 L 145,46 z" fill="#94A3B8"/>

    <!-- exit dot with outer ring -->
    <circle fill="#94A3B8" cx="310" cy="32" r="4"/>
    <circle fill="none" stroke="#94A3B8" stroke-width="1.5" stroke-opacity="0.5" cx="310" cy="32" r="7"/>
  </g>

  <!-- separator line between expr and unaryExpr -->
  <line x1="10" y1="155" x2="890" y2="155" stroke="#475569" stroke-width="0.5" stroke-opacity="0.3"/>

  <!-- ==================== unaryExpr ==================== -->
  <!-- 11-way alternative fan. Use literal type boxes for value types -->
  <g transform="translate(0, 160)">
    <!-- label background pill -->
    <rect class="label-pill" x="2" y="84" width="98" height="24" rx="6"/>
    <text class="label" x="10" y="100" text-anchor="start">unaryExpr</text>

    <!-- entry dot with outer ring -->
    <circle fill="#94A3B8" cx="120" cy="96" r="4"/>
    <circle fill="none" stroke="#94A3B8" stroke-width="1" stroke-opacity="0.3" cx="120" cy="96" r="7"/>
    <line class="track" x1="124" y1="96" x2="160" y2="96"/>

    <!-- 1. funcCall (y=-30) -->
    <path class="track" d="M 160,96 C 160,0 170,-30 190,-30"/>
    <g class="nonterminal" transform="translate(190, -46)">
      <rect width="92" height="32" rx="4"/>
      <text x="46" y="16" text-anchor="middle" dominant-baseline="central">funcCall</text>
    </g>
    <path class="track" d="M 282,-30 C 380,-30 390,0 390,96"/>

    <!-- 2. subQuery (y=2) -->
    <path class="track" d="M 160,96 C 160,30 170,2 190,2"/>
    <g class="nonterminal" transform="translate(190, -14)">
      <rect width="92" height="32" rx="4"/>
      <text x="46" y="16" text-anchor="middle" dominant-baseline="central">subQuery</text>
    </g>
    <path class="track" d="M 282,2 C 370,2 380,30 390,96"/>

    <!-- 3. qualifiedRef (y=34) -->
    <path class="track" d="M 160,96 C 160,54 170,34 190,34"/>
    <g class="nonterminal" transform="translate(190, 18)">
      <rect width="120" height="32" rx="4"/>
      <text x="60" y="16" text-anchor="middle" dominant-baseline="central">qualifiedRef</text>
    </g>
    <path class="track" d="M 310,34 C 370,34 380,54 390,96"/>

    <!-- 4. listLiteral (y=66) -->
    <path class="track" d="M 160,96 C 160,76 170,66 190,66"/>
    <g class="nonterminal" transform="translate(190, 50)">
      <rect width="110" height="32" rx="4"/>
      <text x="55" y="16" text-anchor="middle" dominant-baseline="central">listLiteral</text>
    </g>
    <path class="track" d="M 300,66 C 370,66 380,76 390,96"/>

    <!-- 5. string (y=96 — straight through) -->
    <line class="track" x1="160" y1="96" x2="190" y2="96"/>
    <g class="lit-terminal" transform="translate(190, 80)">
      <rect width="78" height="32" rx="16"/>
      <text x="39" y="16" text-anchor="middle" dominant-baseline="central">string</text>
    </g>
    <line class="track" x1="268" y1="96" x2="390" y2="96"/>

    <!-- 6. date (y=128) -->
    <path class="track" d="M 160,96 C 160,116 170,128 190,128"/>
    <g class="lit-terminal" transform="translate(190, 112)">
      <rect width="64" height="32" rx="16"/>
      <text x="32" y="16" text-anchor="middle" dominant-baseline="central">date</text>
    </g>
    <path class="track" d="M 254,128 C 370,128 380,116 390,96"/>

    <!-- 7. duration (y=160) -->
    <path class="track" d="M 160,96 C 160,140 170,160 190,160"/>
    <g class="lit-terminal" transform="translate(190, 144)">
      <rect width="86" height="32" rx="16"/>
      <text x="43" y="16" text-anchor="middle" dominant-baseline="central">duration</text>
    </g>
    <path class="track" d="M 276,160 C 370,160 380,140 390,96"/>

    <!-- 8. int (y=192) -->
    <path class="track" d="M 160,96 C 160,166 170,192 190,192"/>
    <g class="lit-terminal" transform="translate(190, 176)">
      <rect width="50" height="32" rx="16"/>
      <text x="25" y="16" text-anchor="middle" dominant-baseline="central">int</text>
    </g>
    <path class="track" d="M 240,192 C 370,192 380,166 390,96"/>

    <!-- 9. empty (y=224) -->
    <path class="track" d="M 160,96 C 160,196 170,224 190,224"/>
    <g class="lit-terminal" transform="translate(190, 208)">
      <rect width="70" height="32" rx="16"/>
      <text x="35" y="16" text-anchor="middle" dominant-baseline="central">empty</text>
    </g>
    <path class="track" d="M 260,224 C 370,224 380,196 390,96"/>

    <!-- 10. fieldRef (y=256) -->
    <path class="track" d="M 160,96 C 160,224 170,256 190,256"/>
    <g class="nonterminal" transform="translate(190, 240)">
      <rect width="88" height="32" rx="4"/>
      <text x="44" y="16" text-anchor="middle" dominant-baseline="central">fieldRef</text>
    </g>
    <path class="track" d="M 278,256 C 370,256 380,224 390,96"/>

    <!-- 11. ( expr ) (y=288) -->
    <path class="track" d="M 160,96 C 160,256 170,288 190,288"/>
    <g class="terminal" transform="translate(190, 272)">
      <rect width="30" height="32" rx="16"/>
      <text x="15" y="16" text-anchor="middle" dominant-baseline="central">(</text>
    </g>
    <line class="track" x1="220" y1="288" x2="236" y2="288"/>
    <g class="nonterminal" transform="translate(236, 272)">
      <rect width="60" height="32" rx="4"/>
      <text x="30" y="16" text-anchor="middle" dominant-baseline="central">expr</text>
    </g>
    <line class="track" x1="296" y1="288" x2="312" y2="288"/>
    <g class="terminal" transform="translate(312, 272)">
      <rect width="30" height="32" rx="16"/>
      <text x="15" y="16" text-anchor="middle" dominant-baseline="central">)</text>
    </g>
    <path class="track" d="M 342,288 C 370,288 380,256 390,96"/>

    <!-- exit -->
    <line class="track" x1="390" y1="96" x2="430" y2="96"/>
    <!-- exit dot with outer ring -->
    <circle fill="#94A3B8" cx="430" cy="96" r="4"/>
    <circle fill="none" stroke="#94A3B8" stroke-width="1.5" stroke-opacity="0.5" cx="430" cy="96" r="7"/>
  </g>

  <!-- separator line between unaryExpr and funcCall -->
  <line x1="10" y1="505" x2="890" y2="505" stroke="#475569" stroke-width="0.5" stroke-opacity="0.3"/>

  <!-- ==================== funcCall ==================== -->
  <g transform="translate(0, 510)">
    <!-- label background pill -->
    <rect class="label-pill" x="2" y="20" width="82" height="24" rx="6"/>
    <text class="label" x="10" y="36" text-anchor="start">funcCall</text>

    <!-- entry dot with outer ring -->
    <circle fill="#94A3B8" cx="120" cy="32" r="4"/>
    <circle fill="none" stroke="#94A3B8" stroke-width="1" stroke-opacity="0.3" cx="120" cy="32" r="7"/>
    <line class="track" x1="124" y1="32" x2="150" y2="32"/>

    <g class="nonterminal" transform="translate(150, 16)">
      <rect width="100" height="32" rx="4"/>
      <text x="50" y="16" text-anchor="middle" dominant-baseline="central">identifier</text>
    </g>
    <line class="track" x1="250" y1="32" x2="270" y2="32"/>

    <g class="terminal" transform="translate(270, 16)">
      <rect width="30" height="32" rx="16"/>
      <text x="15" y="16" text-anchor="middle" dominant-baseline="central">(</text>
    </g>
    <line class="track" x1="300" y1="32" x2="330" y2="32"/>

    <!-- optional args: bypass above, expr with comma loopback below -->
    <!-- main path: expr -->
    <g class="nonterminal" transform="translate(330, 16)">
      <rect width="60" height="32" rx="4"/>
      <text x="30" y="16" text-anchor="middle" dominant-baseline="central">expr</text>
    </g>
    <line class="track" x1="390" y1="32" x2="440" y2="32"/>

    <!-- loopback below with comma -->
    <path class="track" d="M 430,32 C 430,62 420,72 400,72"/>
    <g class="terminal" transform="translate(355, 56)">
      <rect width="30" height="32" rx="16"/>
      <text x="15" y="16" text-anchor="middle" dominant-baseline="central">,</text>
    </g>
    <path class="track" d="M 355,72 C 340,72 330,62 330,42"/>
    <path d="M 325,46 L 330,36 L 335,46 z" fill="#94A3B8"/>

    <!-- bypass above: no args -->
    <path class="track" d="M 320,32 C 320,5 330,-5 350,-5 L 410,-5 C 430,-5 440,5 440,32"/>

    <g class="terminal" transform="translate(440, 16)">
      <rect width="30" height="32" rx="16"/>
      <text x="15" y="16" text-anchor="middle" dominant-baseline="central">)</text>
    </g>
    <line class="track" x1="470" y1="32" x2="510" y2="32"/>
    <!-- exit dot with outer ring -->
    <circle fill="#94A3B8" cx="510" cy="32" r="4"/>
    <circle fill="none" stroke="#94A3B8" stroke-width="1.5" stroke-opacity="0.5" cx="510" cy="32" r="7"/>
  </g>

  <!-- separator line between funcCall and qualifiedRef -->
  <line x1="10" y1="605" x2="890" y2="605" stroke="#475569" stroke-width="0.5" stroke-opacity="0.3"/>

  <!-- ==================== qualifiedRef ==================== -->
  <g transform="translate(0, 610)">
    <!-- label background pill -->
    <rect class="label-pill" x="2" y="20" width="118" height="24" rx="6"/>
    <text class="label" x="10" y="36" text-anchor="start">qualifiedRef</text>

    <!-- entry dot with outer ring -->
    <circle fill="#94A3B8" cx="140" cy="32" r="4"/>
    <circle fill="none" stroke="#94A3B8" stroke-width="1" stroke-opacity="0.3" cx="140" cy="32" r="7"/>
    <line class="track" x1="144" y1="32" x2="180" y2="32"/>

    <!-- alternative: old | new -->
    <path class="track" d="M 180,32 C 180,10 190,0 210,0"/>
    <g class="terminal" transform="translate(210, -16)">
      <rect width="50" height="32" rx="16"/>
      <text x="25" y="16" text-anchor="middle" dominant-baseline="central">old</text>
    </g>
    <path class="track" d="M 260,0 C 280,0 290,10 290,32"/>

    <path class="track" d="M 180,32 C 180,54 190,64 210,64"/>
    <g class="terminal" transform="translate(210, 48)">
      <rect width="50" height="32" rx="16"/>
      <text x="25" y="16" text-anchor="middle" dominant-baseline="central">new</text>
    </g>
    <path class="track" d="M 260,64 C 280,64 290,54 290,32"/>

    <line class="track" x1="290" y1="32" x2="310" y2="32"/>
    <g class="terminal" transform="translate(310, 16)">
      <rect width="24" height="32" rx="16"/>
      <text x="12" y="16" text-anchor="middle" dominant-baseline="central">.</text>
    </g>
    <line class="track" x1="334" y1="32" x2="354" y2="32"/>
    <g class="nonterminal" transform="translate(354, 16)">
      <rect width="100" height="32" rx="4"/>
      <text x="50" y="16" text-anchor="middle" dominant-baseline="central">identifier</text>
    </g>
    <line class="track" x1="454" y1="32" x2="490" y2="32"/>
    <!-- exit dot with outer ring -->
    <circle fill="#94A3B8" cx="490" cy="32" r="4"/>
    <circle fill="none" stroke="#94A3B8" stroke-width="1.5" stroke-opacity="0.5" cx="490" cy="32" r="7"/>
  </g>

  </g><!-- end content wrapper -->
</svg>