<svg xmlns="http://www.w3.org/2000/svg" viewBox="0 0 900 708">
  <!--
    Trigger railroad diagram — transparent/dark-bg compatible
    6 tracks: trigger, timing, event, action, deny, runAction
  -->
  <defs>
    <marker id="arrow" viewBox="0 0 10 7" refX="10" refY="3.5" markerWidth="10" markerHeight="7" orient="auto-start-reverse">
      <path d="M 0 0 L 10 3.5 L 0 7 z" fill="#94A3B8"/>
    </marker>
    <filter id="shadow" x="-4%" y="-4%" width="108%" height="116%">
      <feDropShadow dx="0" dy="1" stdDeviation="2" flood-color="#000000" flood-opacity="0.3"/>
    </filter>
    <style>
      .label { font: bold 14px 'SF Mono', 'Cascadia Code', 'Fira Code', monospace; fill: #94A3B8; }
      .title { font: 700 16px -apple-system, 'Segoe UI', Roboto, sans-serif; fill: #A5B4FC; }
      .terminal rect { fill: #3B82F6; fill-opacity: 0.15; stroke: #3B82F6; stroke-width: 1.5; stroke-opacity: 0.5; filter: url(#shadow); }
      .terminal text { font: 13px -apple-system, 'Segoe UI', Roboto, sans-serif; fill: #93C5FD; font-weight: 600; }
      .nonterminal rect { fill: #F59E0B; fill-opacity: 0.15; stroke: #F59E0B; stroke-width: 1.5; stroke-opacity: 0.5; filter: url(#shadow); }
      .nonterminal text { font: 13px -apple-system, 'Segoe UI', Roboto, sans-serif; fill: #FCD34D; font-weight: 500; }
      .track { stroke: #94A3B8; stroke-width: 1.5; fill: none; }
    </style>
  </defs>

  <!-- title -->
  <text class="title" x="450" y="22" text-anchor="middle">Trigger grammar</text>

  <!-- all tracks shifted down 8px to accommodate title -->
  <g transform="translate(0, 8)">

    <!-- ==================== trigger ==================== -->
    <!-- Main line y=50, bypass above at y=10 for optional where -->
    <g transform="translate(0, 30)">
      <g>
        <rect x="2" y="40" width="71" height="24" rx="6" fill="#94A3B8" fill-opacity="0.08" stroke="#94A3B8" stroke-width="0.5" stroke-opacity="0.2"/>
        <text class="label" x="10" y="54" text-anchor="start">trigger</text>
      </g>

      <!-- entry dot with outer ring -->
      <circle cx="120" cy="50" r="7" fill="none" stroke="#94A3B8" stroke-width="1" stroke-opacity="0.3"/>
      <circle cx="120" cy="50" r="4" fill="#94A3B8"/>
      <line class="track" x1="124" y1="50" x2="150" y2="50"/>

      <!-- timing non-terminal -->
      <g class="nonterminal" transform="translate(150, 34)">
        <rect width="80" height="32" rx="4"/>
        <text x="40" y="16" text-anchor="middle" dominant-baseline="central">timing</text>
      </g>
      <line class="track" x1="230" y1="50" x2="256" y2="50"/>

      <!-- event non-terminal -->
      <g class="nonterminal" transform="translate(256, 34)">
        <rect width="72" height="32" rx="4"/>
        <text x="36" y="16" text-anchor="middle" dominant-baseline="central">event</text>
      </g>
      <line class="track" x1="328" y1="50" x2="358" y2="50"/>

      <!-- optional where + condition: main path -->
      <g class="terminal" transform="translate(358, 34)">
        <rect width="70" height="32" rx="16"/>
        <text x="35" y="16" text-anchor="middle" dominant-baseline="central">where</text>
      </g>
      <line class="track" x1="428" y1="50" x2="454" y2="50"/>
      <g class="nonterminal" transform="translate(454, 34)">
        <rect width="100" height="32" rx="4"/>
        <text x="50" y="16" text-anchor="middle" dominant-baseline="central">condition</text>
      </g>
      <line class="track" x1="554" y1="50" x2="600" y2="50"/>

      <!-- bypass above for optional where+condition -->
      <path class="track" d="M 348,50 C 348,20 358,10 378,10 L 570,10 C 590,10 600,20 600,50"/>

      <!-- alternative: action or deny -->
      <!-- upper path: action -->
      <path class="track" d="M 600,50 C 600,20 610,10 630,10"/>
      <g class="nonterminal" transform="translate(630, -6)">
        <rect width="80" height="32" rx="4"/>
        <text x="40" y="16" text-anchor="middle" dominant-baseline="central">action</text>
      </g>
      <path class="track" d="M 710,10 C 730,10 740,20 740,50"/>

      <!-- lower path: deny -->
      <path class="track" d="M 600,50 C 600,80 610,90 630,90"/>
      <g class="nonterminal" transform="translate(630, 74)">
        <rect width="80" height="32" rx="4"/>
        <text x="40" y="16" text-anchor="middle" dominant-baseline="central">deny</text>
      </g>
      <path class="track" d="M 710,90 C 730,90 740,80 740,50"/>

      <line class="track" x1="740" y1="50" x2="780" y2="50"/>
      <!-- exit dot with thicker outer ring -->
      <circle cx="780" cy="50" r="7" fill="none" stroke="#94A3B8" stroke-width="1.5" stroke-opacity="0.5"/>
      <circle cx="780" cy="50" r="4" fill="#94A3B8"/>
    </g>

    <!-- separator between trigger and timing -->
    <line x1="10" y1="160" x2="890" y2="160" stroke="#475569" stroke-width="0.5" stroke-opacity="0.3"/>

    <!-- ==================== timing ==================== -->
    <g transform="translate(0, 170)">
      <g>
        <rect x="2" y="22" width="64" height="24" rx="6" fill="#94A3B8" fill-opacity="0.08" stroke="#94A3B8" stroke-width="0.5" stroke-opacity="0.2"/>
        <text class="label" x="10" y="36" text-anchor="start">timing</text>
      </g>

      <!-- entry dot with outer ring -->
      <circle cx="120" cy="32" r="7" fill="none" stroke="#94A3B8" stroke-width="1" stroke-opacity="0.3"/>
      <circle cx="120" cy="32" r="4" fill="#94A3B8"/>
      <line class="track" x1="124" y1="32" x2="160" y2="32"/>

      <!-- upper: before -->
      <path class="track" d="M 160,32 C 160,10 170,0 190,0"/>
      <g class="terminal" transform="translate(190, -16)">
        <rect width="78" height="32" rx="16"/>
        <text x="39" y="16" text-anchor="middle" dominant-baseline="central">before</text>
      </g>
      <path class="track" d="M 268,0 C 288,0 298,10 298,32"/>

      <!-- lower: after -->
      <path class="track" d="M 160,32 C 160,54 170,64 190,64"/>
      <g class="terminal" transform="translate(190, 48)">
        <rect width="78" height="32" rx="16"/>
        <text x="39" y="16" text-anchor="middle" dominant-baseline="central">after</text>
      </g>
      <path class="track" d="M 268,64 C 288,64 298,54 298,32"/>

      <line class="track" x1="298" y1="32" x2="340" y2="32"/>
      <!-- exit dot with thicker outer ring -->
      <circle cx="340" cy="32" r="7" fill="none" stroke="#94A3B8" stroke-width="1.5" stroke-opacity="0.5"/>
      <circle cx="340" cy="32" r="4" fill="#94A3B8"/>
    </g>

    <!-- separator between timing and event -->
    <line x1="10" y1="278" x2="890" y2="278" stroke="#475569" stroke-width="0.5" stroke-opacity="0.3"/>

    <!-- ==================== event ==================== -->
    <g transform="translate(0, 290)">
      <g>
        <rect x="2" y="22" width="56" height="24" rx="6" fill="#94A3B8" fill-opacity="0.08" stroke="#94A3B8" stroke-width="0.5" stroke-opacity="0.2"/>
        <text class="label" x="10" y="36" text-anchor="start">event</text>
      </g>

      <!-- entry dot with outer ring -->
      <circle cx="120" cy="32" r="7" fill="none" stroke="#94A3B8" stroke-width="1" stroke-opacity="0.3"/>
      <circle cx="120" cy="32" r="4" fill="#94A3B8"/>
      <line class="track" x1="124" y1="32" x2="160" y2="32"/>

      <!-- top: create -->
      <path class="track" d="M 160,32 C 160,2 170,-8 190,-8"/>
      <g class="terminal" transform="translate(190, -24)">
        <rect width="78" height="32" rx="16"/>
        <text x="39" y="16" text-anchor="middle" dominant-baseline="central">create</text>
      </g>
      <path class="track" d="M 268,-8 C 288,-8 298,2 298,32"/>

      <!-- middle: update -->
      <g class="terminal" transform="translate(190, 16)">
        <rect width="78" height="32" rx="16"/>
        <text x="39" y="16" text-anchor="middle" dominant-baseline="central">update</text>
      </g>
      <!-- straight through for middle option -->
      <line class="track" x1="160" y1="32" x2="190" y2="32"/>
      <line class="track" x1="268" y1="32" x2="298" y2="32"/>

      <!-- bottom: delete -->
      <path class="track" d="M 160,32 C 160,62 170,72 190,72"/>
      <g class="terminal" transform="translate(190, 56)">
        <rect width="78" height="32" rx="16"/>
        <text x="39" y="16" text-anchor="middle" dominant-baseline="central">delete</text>
      </g>
      <path class="track" d="M 268,72 C 288,72 298,62 298,32"/>

      <line class="track" x1="298" y1="32" x2="340" y2="32"/>
      <!-- exit dot with thicker outer ring -->
      <circle cx="340" cy="32" r="7" fill="none" stroke="#94A3B8" stroke-width="1.5" stroke-opacity="0.5"/>
      <circle cx="340" cy="32" r="4" fill="#94A3B8"/>
    </g>

    <!-- separator between event and action -->
    <line x1="10" y1="407" x2="890" y2="407" stroke="#475569" stroke-width="0.5" stroke-opacity="0.3"/>

    <!-- ==================== action ==================== -->
    <!-- Center at y=55 to give room for 4 alternatives above and below -->
    <g transform="translate(0, 420)">
      <g>
        <rect x="2" y="45" width="64" height="24" rx="6" fill="#94A3B8" fill-opacity="0.08" stroke="#94A3B8" stroke-width="0.5" stroke-opacity="0.2"/>
        <text class="label" x="10" y="59" text-anchor="start">action</text>
      </g>

      <!-- entry dot with outer ring -->
      <circle cx="120" cy="55" r="7" fill="none" stroke="#94A3B8" stroke-width="1" stroke-opacity="0.3"/>
      <circle cx="120" cy="55" r="4" fill="#94A3B8"/>
      <line class="track" x1="124" y1="55" x2="160" y2="55"/>

      <!-- top: runAction -->
      <path class="track" d="M 160,55 C 160,10 170,-5 190,-5"/>
      <g class="nonterminal" transform="translate(190, -21)">
        <rect width="104" height="32" rx="4"/>
        <text x="52" y="16" text-anchor="middle" dominant-baseline="central">runAction</text>
      </g>
      <path class="track" d="M 294,-5 C 314,-5 324,10 324,55"/>

      <!-- upper-middle: createStmt -->
      <path class="track" d="M 160,55 C 160,35 170,25 190,25"/>
      <g class="nonterminal" transform="translate(190, 9)">
        <rect width="104" height="32" rx="4"/>
        <text x="52" y="16" text-anchor="middle" dominant-baseline="central">createStmt</text>
      </g>
      <path class="track" d="M 294,25 C 314,25 324,35 324,55"/>

      <!-- lower-middle: updateStmt (straight through) -->
      <line class="track" x1="160" y1="55" x2="190" y2="55"/>
      <g class="nonterminal" transform="translate(190, 39)">
        <rect width="104" height="32" rx="4"/>
        <text x="52" y="16" text-anchor="middle" dominant-baseline="central">updateStmt</text>
      </g>
      <line class="track" x1="294" y1="55" x2="324" y2="55"/>

      <!-- bottom: deleteStmt -->
      <path class="track" d="M 160,55 C 160,75 170,85 190,85"/>
      <g class="nonterminal" transform="translate(190, 69)">
        <rect width="104" height="32" rx="4"/>
        <text x="52" y="16" text-anchor="middle" dominant-baseline="central">deleteStmt</text>
      </g>
      <path class="track" d="M 294,85 C 314,85 324,75 324,55"/>

      <line class="track" x1="324" y1="55" x2="370" y2="55"/>
      <!-- exit dot with thicker outer ring -->
      <circle cx="370" cy="55" r="7" fill="none" stroke="#94A3B8" stroke-width="1.5" stroke-opacity="0.5"/>
      <circle cx="370" cy="55" r="4" fill="#94A3B8"/>
    </g>

    <!-- separator between action and deny -->
    <line x1="10" y1="548" x2="890" y2="548" stroke="#475569" stroke-width="0.5" stroke-opacity="0.3"/>

    <!-- ==================== deny ==================== -->
    <g transform="translate(0, 560)">
      <g>
        <rect x="2" y="22" width="52" height="24" rx="6" fill="#94A3B8" fill-opacity="0.08" stroke="#94A3B8" stroke-width="0.5" stroke-opacity="0.2"/>
        <text class="label" x="10" y="36" text-anchor="start">deny</text>
      </g>

      <!-- entry dot with outer ring -->
      <circle cx="120" cy="32" r="7" fill="none" stroke="#94A3B8" stroke-width="1" stroke-opacity="0.3"/>
      <circle cx="120" cy="32" r="4" fill="#94A3B8"/>
      <line class="track" x1="124" y1="32" x2="150" y2="32"/>

      <g class="terminal" transform="translate(150, 16)">
        <rect width="62" height="32" rx="16"/>
        <text x="31" y="16" text-anchor="middle" dominant-baseline="central">deny</text>
      </g>
      <line class="track" x1="212" y1="32" x2="240" y2="32"/>

      <g class="nonterminal" transform="translate(240, 16)">
        <rect width="72" height="32" rx="4"/>
        <text x="36" y="16" text-anchor="middle" dominant-baseline="central">string</text>
      </g>
      <line class="track" x1="312" y1="32" x2="350" y2="32"/>
      <!-- exit dot with thicker outer ring -->
      <circle cx="350" cy="32" r="7" fill="none" stroke="#94A3B8" stroke-width="1.5" stroke-opacity="0.5"/>
      <circle cx="350" cy="32" r="4" fill="#94A3B8"/>
    </g>

    <!-- separator between deny and runAction -->
    <line x1="10" y1="620" x2="890" y2="620" stroke="#475569" stroke-width="0.5" stroke-opacity="0.3"/>

    <!-- ==================== runAction ==================== -->
    <g transform="translate(0, 630)">
      <g>
        <rect x="2" y="22" width="90" height="24" rx="6" fill="#94A3B8" fill-opacity="0.08" stroke="#94A3B8" stroke-width="0.5" stroke-opacity="0.2"/>
        <text class="label" x="10" y="36" text-anchor="start">runAction</text>
      </g>

      <!-- entry dot with outer ring -->
      <circle cx="120" cy="32" r="7" fill="none" stroke="#94A3B8" stroke-width="1" stroke-opacity="0.3"/>
      <circle cx="120" cy="32" r="4" fill="#94A3B8"/>
      <line class="track" x1="124" y1="32" x2="150" y2="32"/>

      <g class="terminal" transform="translate(150, 16)">
        <rect width="52" height="32" rx="16"/>
        <text x="26" y="16" text-anchor="middle" dominant-baseline="central">run</text>
      </g>
      <line class="track" x1="202" y1="32" x2="222" y2="32"/>

      <g class="terminal" transform="translate(222, 16)">
        <rect width="30" height="32" rx="16"/>
        <text x="15" y="16" text-anchor="middle" dominant-baseline="central">(</text>
      </g>
      <line class="track" x1="252" y1="32" x2="272" y2="32"/>

      <g class="nonterminal" transform="translate(272, 16)">
        <rect width="60" height="32" rx="4"/>
        <text x="30" y="16" text-anchor="middle" dominant-baseline="central">expr</text>
      </g>
      <line class="track" x1="332" y1="32" x2="352" y2="32"/>

      <g class="terminal" transform="translate(352, 16)">
        <rect width="30" height="32" rx="16"/>
        <text x="15" y="16" text-anchor="middle" dominant-baseline="central">)</text>
      </g>
      <line class="track" x1="382" y1="32" x2="420" y2="32"/>
      <!-- exit dot with thicker outer ring -->
      <circle cx="420" cy="32" r="7" fill="none" stroke="#94A3B8" stroke-width="1.5" stroke-opacity="0.5"/>
      <circle cx="420" cy="32" r="4" fill="#94A3B8"/>
    </g>

  </g>
</svg>